<svg xmlns="http://www.w3.org/2000/svg" width="32" height="32">
  <style>
		path { fill: #292a2d; }
    @media (prefers-color-scheme: dark) {
			path { fill: #fff; }
    }
  </style>
  <path d="M19 0v4.1c4.4 1.3 7.6 5.3 7.6 10.1 0 5.8-4.7 10.5-10.5 10.5S5.5 20 5.5 14.2c0-4.8 3.2-8.8 7.6-10.1V0C6.4 1.4 1.5 7.2 1.5 14.2c0 8 6.5 14.5 14.5 14.5s14.5-6.5 14.5-14.5c0-7-4.9-12.8-11.5-14.2z"/>
  <path d="M10.9 27.5L8.8 32H4.7l2.8-6.3L9.2 22 16 6.8 22.8 22l1.7 3.7 2.8 6.3h-4.1l-2.1-4.5-1.6-3.6-3.5-7.6-3.5 7.6z"/>
</svg>
